<?xml version="1.0" encoding="utf-8"?>
<!-- Generator: Adobe Illustrator 14.0.0, SVG Export Plug-In . SVG Version: 6.00 Build 43363)  -->
<!DOCTYPE svg PUBLIC "-//W3C//DTD SVG 1.1//EN" "http://www.w3.org/Graphics/SVG/1.1/DTD/svg11.dtd">
<svg version="1.1" id="Layer_1" xmlns="http://www.w3.org/2000/svg" xmlns:xlink="http://www.w3.org/1999/xlink" x="0px" y="0px"
	 width="312px" height="123px" viewBox="0 0 312 123" enable-background="new 0 0 312 123" xml:space="preserve">
<g id="Layer_2">
</g>
<g id="Layer_3">
	<path fill="#CCCCCC" stroke="#020202" stroke-width="0.5" d="M104.863,42.837l-0.1-0.439c-0.24-0.341-0.49-0.671-0.741-1.002
		c-7.521-12.237-21.031-20.417-36.418-20.417c-23.556,0-42.719,19.164-42.719,42.716c0,23.556,19.164,42.719,42.719,42.719
		s42.719-19.163,42.719-42.719C110.323,56.125,108.334,49.011,104.863,42.837z M106.471,71.883c-0.264,1.25-0.583,2.479-0.961,3.684
		L75.911,58.137c-0.645-0.958-1.455-1.792-2.383-2.477l31.662-4.775c0.365,1.068,0.689,2.154,0.964,3.26l-0.267-0.157l-4.802,0.655
		l5.793,3.41l0.029-0.051c0.18,1.241,0.306,2.499,0.366,3.774L96.267,55.3l-4.802,0.655l15.816,9.301
		c-0.045,1.166-0.144,2.317-0.288,3.456L86.467,56.638l-4.804,0.655L106.471,71.883z M43.074,94.883l0.005,0.021
		c-0.981-0.772-1.924-1.59-2.828-2.45l12.401-2.899l3.022-3.787l-17.846,4.176c-0.766-0.867-1.497-1.767-2.186-2.697l23.179-5.423
		l3.025-3.79l-28.005,6.555c-0.418-0.674-0.822-1.359-1.201-2.061l35.196-8.842c0.266-0.006,0.531-0.015,0.791-0.041l-19.859,25.01
		c-0.835-0.452-1.648-0.94-2.446-1.449l0.274-0.064l3.023-3.787L43.074,94.883z M28.323,69.576c-0.188-1.262-0.32-2.542-0.386-3.84
		l13.972,9.078l3.646-1.209L27.924,62.152c0.046-1.192,0.147-2.369,0.297-3.532l21.131,13.728l3.646-1.209L28.765,55.396
		c0.176-0.822,0.381-1.632,0.607-2.434l30.35,16.866c0.668,0.855,1.466,1.604,2.374,2.205l-30.799,7.738
		c-0.866-1.947-1.587-3.975-2.133-6.07l5.442,3.533l3.645-1.207L28.323,69.576z M67.604,56.698c3.859,0,7,3.141,7,6.999
		c0,1.598-0.545,3.066-1.45,4.246l-0.224,0.283c-1.284,1.508-3.194,2.469-5.326,2.469c-3.86,0-7.001-3.141-7.001-6.998
		C60.604,59.839,63.745,56.698,67.604,56.698z M96.473,36.46l-15.46,3.512l-1.675,3.457l19.363-4.398
		c0.705,0.887,1.376,1.801,2.005,2.748l-23.113,5.25l-1.673,3.458l26.43-6.005c0.637,1.146,1.219,2.325,1.741,3.536L67.403,53.55
		l18.095-25.294c1.895,0.96,3.703,2.066,5.408,3.306l-6.539,1.488l-1.675,3.455l11.201-2.544
		C94.791,34.754,95.65,35.589,96.473,36.46z M69.821,24.044l-9.677,12.772l0.148,4.844l13.012-17.266
		c1.014,0.146,2.013,0.335,3.001,0.557l-15.421,20.5l0.15,4.846l18.489-24.488c1.088,0.343,2.155,0.735,3.201,1.168L62.67,55.011
		c-1.161,0.662-2.171,1.548-2.982,2.6L54.854,26.09c2.34-0.795,4.776-1.379,7.289-1.727l-3.114,4.274l0.15,4.844l6.917-9.433
		l-0.04-0.03c0.514-0.02,1.028-0.039,1.548-0.039C68.349,23.979,69.087,24.003,69.821,24.044z M39.651,35.511l2.54,16.435
		l3.331,1.913l-3.208-20.765c0.909-0.752,1.856-1.461,2.831-2.132l3.846,24.889l3.331,1.912l-4.41-28.537
		c1.314-0.754,2.671-1.44,4.074-2.043l5.626,36.682c0.008,0.486,0.056,0.962,0.132,1.43L30.303,50.047
		c1.083-2.951,2.512-5.736,4.229-8.313l0.988,6.381l3.329,1.912l-1.803-11.671C37.868,37.366,38.738,36.417,39.651,35.511z
		 M64.995,103.318l10.642-12.801l-0.771-3.762l-13.45,16.174c-1.176-0.186-2.334-0.424-3.475-0.71l16.117-19.383l-0.773-3.761
		l-18.471,22.213c-1.119-0.382-2.214-0.811-3.286-1.286l23.734-29.89c0.059-0.069,0.113-0.144,0.17-0.215l0.226-0.283l4.711,31.683
		c-2.352,0.8-4.799,1.388-7.322,1.734l4.137-4.978l-0.771-3.763l-7.557,9.09c-0.416,0.013-0.831,0.031-1.251,0.031
		C66.727,103.414,65.858,103.375,64.995,103.318z M95.399,92.032l-2.445-16.446l-3.319-1.932l3.089,20.781
		c-0.915,0.75-1.863,1.459-2.843,2.125l-3.705-24.918l-3.319-1.932l4.247,28.566c-1.249,0.707-2.537,1.354-3.865,1.925
		l-5.584-37.558l26.82,15.791c-1.05,2.617-2.362,5.104-3.919,7.412l-0.951-6.395l-3.319-1.932l1.736,11.678
		C97.193,90.188,96.317,91.131,95.399,92.032z"/>
	<g>
		<g>
			<g>
				<path opacity="0.7" fill="#85C441" stroke="#000000" stroke-width="0.6521" enable-background="new    " d="M121.229,59.543
					c-0.164-2.031-8.178-1.116-8.375-3.524l-0.314-3.866c0.195,2.408,8.211,1.494,8.378,3.524L121.229,59.543z"/>
				<path fill="#85C441" stroke="#000000" stroke-width="0.6521" d="M113.534,64.373c-0.167-2.032,7.89-2.422,7.694-4.83
					l-0.312-3.865c0.192,2.409-7.864,2.799-7.699,4.83L113.534,64.373z"/>
			</g>
			<g>
				<path opacity="0.7" fill="#85C441" stroke="#000000" stroke-width="0.6521" enable-background="new    " d="M119.82,50.697
					c-0.488-1.979-8.255,0.207-8.833-2.138l-0.93-3.765c0.58,2.345,8.343,0.159,8.832,2.137L119.82,50.697z"/>
				<path fill="#85C441" stroke="#000000" stroke-width="0.6521" d="M112.994,56.697c-0.49-1.979,7.402-3.655,6.826-6l-0.931-3.765
					c0.579,2.344-7.311,4.021-6.823,6L112.994,56.697z"/>
			</g>
			<g>
				<path opacity="0.7" fill="#85C441" stroke="#000000" stroke-width="0.6521" enable-background="new    " d="M116.961,42.215
					c-0.796-1.877-8.12,1.507-9.061-0.717l-1.509-3.573c0.938,2.225,8.263-1.158,9.057,0.718L116.961,42.215z"/>
				<path fill="#85C441" stroke="#000000" stroke-width="0.6521" d="M111.167,49.217c-0.791-1.876,6.732-4.777,5.794-7.002
					l-1.513-3.57c0.94,2.224-6.585,5.124-5.79,7L111.167,49.217z"/>
			</g>
			<g>
				<path opacity="0.7" fill="#85C441" stroke="#000000" stroke-width="0.6521" enable-background="new    " d="M112.738,34.334
					c-1.073-1.731-7.781,2.747-9.056,0.695l-2.047-3.295c1.274,2.052,7.981-2.426,9.057-0.695L112.738,34.334z"/>
				<path fill="#85C441" stroke="#000000" stroke-width="0.6521" d="M108.106,42.147c-1.077-1.729,5.909-5.762,4.632-7.813
					l-2.046-3.293c1.276,2.051-5.71,6.083-4.635,7.813L108.106,42.147z"/>
			</g>
			<g>
				<path opacity="0.7" fill="#85C441" stroke="#000000" stroke-width="0.6521" enable-background="new    " d="M107.289,27.256
					c-1.329-1.546-7.274,3.904-8.848,2.072l-2.525-2.942c1.573,1.833,7.517-3.619,8.846-2.073L107.289,27.256z"/>
				<path fill="#85C441" stroke="#000000" stroke-width="0.6521" d="M103.903,35.688c-1.326-1.546,4.96-6.6,3.386-8.432
					l-2.527-2.942c1.573,1.832-4.715,6.885-3.386,8.432L103.903,35.688z"/>
			</g>
			<g>
				<path opacity="0.7" fill="#85C441" stroke="#000000" stroke-width="0.6521" enable-background="new    " d="M100.563,20.913
					c-1.647-1.203-6.195,5.457-8.145,4.031l-3.13-2.291c1.949,1.426,6.497-5.233,8.142-4.031L100.563,20.913z"/>
				<path fill="#85C441" stroke="#000000" stroke-width="0.6521" d="M99.185,29.895c-1.646-1.204,3.327-7.555,1.379-8.981
					l-3.133-2.29c1.951,1.425-3.021,7.776-1.378,8.98L99.185,29.895z"/>
			</g>
			<g>
				<path opacity="0.7" fill="#85C441" stroke="#000000" stroke-width="0.6521" enable-background="new    " d="M92.806,15.817
					c-1.875-0.793-4.77,6.736-6.993,5.797l-3.576-1.509c2.228,0.939,5.119-6.59,6.997-5.797L92.806,15.817z"/>
				<path fill="#85C441" stroke="#000000" stroke-width="0.6521" d="M93.533,24.873c-1.877-0.792,1.5-8.118-0.728-9.056
					l-3.572-1.509c2.226,0.939-1.151,8.265,0.728,9.057L93.533,24.873z"/>
			</g>
			<g>
				<path opacity="0.7" fill="#85C441" stroke="#000000" stroke-width="0.6521" enable-background="new    " d="M84.536,12.326
					c-1.979-0.487-3.646,7.405-5.994,6.828l-3.767-0.925c2.348,0.576,4.015-7.316,5.993-6.829L84.536,12.326z"/>
				<path fill="#85C441" stroke="#000000" stroke-width="0.6521" d="M86.682,21.155c-1.977-0.487,0.199-8.254-2.146-8.829
					L80.771,11.4c2.346,0.576,0.167,8.342,2.144,8.829L86.682,21.155z"/>
			</g>
			<g>
				<path opacity="0.7" fill="#85C441" stroke="#000000" stroke-width="0.6521" enable-background="new    " d="M75.796,10.245
					c-2.031-0.164-2.412,7.894-4.82,7.701l-3.867-0.31c2.408,0.193,2.792-7.865,4.82-7.701L75.796,10.245z"/>
				<path fill="#85C441" stroke="#000000" stroke-width="0.6521" d="M79.329,18.617c-2.028-0.164-1.125-8.179-3.533-8.372
					l-3.864-0.31c2.408,0.193,1.502,8.208,3.533,8.371L79.329,18.617z"/>
			</g>
			<g>
				<path opacity="0.7" fill="#85C441" stroke="#000000" stroke-width="0.6521" enable-background="new    " d="M66.838,9.623
					c-2.034,0.165-1.119,8.179-3.527,8.374l-3.866,0.315c2.407-0.196,1.494-8.21,3.523-8.375L66.838,9.623z"/>
				<path fill="#85C441" stroke="#000000" stroke-width="0.6521" d="M71.669,17.319c-2.033,0.165-2.423-7.891-4.831-7.696
					l-3.869,0.314c2.409-0.196,2.799,7.86,4.833,7.696L71.669,17.319z"/>
			</g>
			<g>
				<path opacity="0.7" fill="#85C441" stroke="#000000" stroke-width="0.6521" enable-background="new    " d="M57.897,10.476
					c-1.979,0.489,0.208,8.252-2.137,8.831l-3.765,0.93c2.346-0.579,0.159-8.343,2.136-8.831L57.897,10.476z"/>
				<path fill="#85C441" stroke="#000000" stroke-width="0.6521" d="M63.897,17.298c-1.977,0.488-3.653-7.401-6-6.822l-3.764,0.93
					c2.347-0.58,4.021,7.31,6,6.822L63.897,17.298z"/>
			</g>
			<g>
				<path opacity="0.7" fill="#85C441" stroke="#000000" stroke-width="0.6521" enable-background="new    " d="M49.244,12.806
					c-1.878,0.794,1.504,8.116-0.72,9.058l-3.571,1.511c2.225-0.941-1.158-8.263,0.719-9.057L49.244,12.806z"/>
				<path fill="#85C441" stroke="#000000" stroke-width="0.6521" d="M56.243,18.597c-1.875,0.794-4.777-6.732-7-5.791l-3.572,1.511
					c2.225-0.941,5.124,6.586,6.999,5.792L56.243,18.597z"/>
			</g>
			<g>
				<path opacity="0.7" fill="#85C441" stroke="#000000" stroke-width="0.6521" enable-background="new    " d="M41.11,16.539
					c-1.731,1.076,2.744,7.785,0.692,9.06l-3.292,2.047c2.051-1.274-2.427-7.983-0.695-9.059L41.11,16.539z"/>
				<path fill="#85C441" stroke="#000000" stroke-width="0.6521" d="M48.924,21.174c-1.732,1.076-5.763-5.91-7.814-4.635
					l-3.294,2.047c2.051-1.274,6.082,5.711,7.813,4.636L48.924,21.174z"/>
			</g>
			<g>
				<path opacity="0.7" fill="#85C441" stroke="#000000" stroke-width="0.6521" enable-background="new    " d="M33.714,21.556
					c-1.545,1.328,3.904,7.274,2.073,8.848l-2.945,2.527c1.835-1.574-3.618-7.52-2.072-8.847L33.714,21.556z"/>
				<path fill="#85C441" stroke="#000000" stroke-width="0.6521" d="M42.144,24.942c-1.545,1.327-6.597-4.96-8.43-3.387
					l-2.943,2.527c1.833-1.574,6.886,4.713,8.433,3.386L42.144,24.942z"/>
			</g>
			<g>
				<path opacity="0.7" fill="#85C441" stroke="#000000" stroke-width="0.6521" enable-background="new    " d="M27.243,27.712
					c-1.328,1.547,4.967,6.594,3.396,8.429l-2.526,2.945c1.573-1.834-4.721-6.881-3.396-8.428L27.243,27.712z"/>
				<path fill="#85C441" stroke="#000000" stroke-width="0.6521" d="M36.092,29.775c-1.325,1.548-7.277-3.896-8.849-2.062
					l-2.525,2.945c1.573-1.834,7.526,3.61,8.852,2.062L36.092,29.775z"/>
			</g>
			<g>
				<path opacity="0.7" fill="#85C441" stroke="#000000" stroke-width="0.6521" enable-background="new    " d="M21.864,34.845
					c-1.073,1.732,5.918,5.756,4.644,7.812l-2.043,3.296c1.272-2.053-5.72-6.078-4.646-7.81L21.864,34.845z"/>
				<path fill="#85C441" stroke="#000000" stroke-width="0.6521" d="M30.926,35.53c-1.074,1.73-7.791-2.738-9.062-0.686
					l-2.044,3.296c1.275-2.053,7.988,2.418,9.063,0.687L30.926,35.53z"/>
			</g>
			<g>
				<path opacity="0.7" fill="#85C441" stroke="#000000" stroke-width="0.6521" enable-background="new    " d="M17.728,42.771
					c-0.792,1.877,6.737,4.771,5.798,6.996l-1.509,3.572c0.938-2.225-6.589-5.118-5.797-6.995L17.728,42.771z"/>
				<path fill="#85C441" stroke="#000000" stroke-width="0.6521" d="M26.785,42.043c-0.792,1.877-8.118-1.499-9.057,0.727
					l-1.508,3.573c0.94-2.225,8.264,1.151,9.057-0.727L26.785,42.043z"/>
			</g>
			<g>
				<path opacity="0.7" fill="#85C441" stroke="#000000" stroke-width="0.6521" enable-background="new    " d="M14.962,51.281
					c-0.488,1.979,7.405,3.649,6.828,5.994l-0.926,3.766c0.577-2.345-7.315-4.015-6.829-5.994L14.962,51.281z"/>
				<path fill="#85C441" stroke="#000000" stroke-width="0.6521" d="M23.791,49.134c-0.485,1.979-8.252-0.199-8.829,2.146
					l-0.927,3.767c0.576-2.346,8.342-0.167,8.83-2.146L23.791,49.134z"/>
			</g>
			<g>
				<path opacity="0.7" fill="#85C441" stroke="#000000" stroke-width="0.6521" enable-background="new    " d="M13.646,60.144
					c-0.164,2.032,7.893,2.415,7.701,4.824l-0.312,3.868c0.195-2.406-7.862-2.791-7.7-4.825L13.646,60.144z"/>
				<path fill="#85C441" stroke="#000000" stroke-width="0.6521" d="M22.018,56.61c-0.165,2.031-8.178,1.125-8.371,3.533
					l-0.311,3.866c0.194-2.409,8.209-1.501,8.372-3.532L22.018,56.61z"/>
			</g>
			<g>
				<path opacity="0.7" fill="#85C441" stroke="#000000" stroke-width="0.6521" enable-background="new    " d="M13.799,69.107
					c0.166,2.028,8.179,1.117,8.375,3.523l0.312,3.865c-0.194-2.408-8.208-1.493-8.374-3.523L13.799,69.107z"/>
				<path fill="#85C441" stroke="#000000" stroke-width="0.6521" d="M21.495,64.273c0.165,2.033-7.891,2.426-7.696,4.834
					l0.314,3.865c-0.196-2.408,7.861-2.8,7.696-4.83L21.495,64.273z"/>
			</g>
			<g>
				<path opacity="0.7" fill="#85C441" stroke="#000000" stroke-width="0.6521" enable-background="new    " d="M15.417,77.919
					c0.488,1.979,8.252-0.208,8.832,2.138l0.929,3.766c-0.579-2.346-8.343-0.158-8.831-2.137L15.417,77.919z"/>
				<path fill="#85C441" stroke="#000000" stroke-width="0.6521" d="M22.24,71.92c0.488,1.977-7.401,3.654-6.823,5.999l0.93,3.767
					c-0.579-2.347,7.31-4.023,6.822-6.002L22.24,71.92z"/>
			</g>
			<g>
				<path opacity="0.7" fill="#85C441" stroke="#000000" stroke-width="0.6521" enable-background="new    " d="M18.47,86.335
					c0.794,1.877,8.117-1.507,9.06,0.72l1.513,3.571c-0.94-2.226-8.265,1.157-9.061-0.72L18.47,86.335z"/>
				<path fill="#85C441" stroke="#000000" stroke-width="0.6521" d="M24.261,79.333c0.794,1.877-6.731,4.776-5.791,7.002
					l1.512,3.571c-0.941-2.225,6.585-5.124,5.792-7.001L24.261,79.333z"/>
			</g>
			<g>
				<path opacity="0.7" fill="#85C441" stroke="#000000" stroke-width="0.6521" enable-background="new    " d="M22.976,94.424
					c1.204,1.643,7.553-3.336,8.982-1.389l2.293,3.129c-1.428-1.95-7.777,3.029-8.982,1.387L22.976,94.424z"/>
				<path fill="#85C441" stroke="#000000" stroke-width="0.6521" d="M26.999,86.275c1.207,1.644-5.451,6.197-4.023,8.147
					l2.293,3.125c-1.43-1.946,5.23-6.503,4.026-8.146L26.999,86.275z"/>
			</g>
			<g>
				<path opacity="0.7" fill="#85C441" stroke="#000000" stroke-width="0.6521" enable-background="new    " d="M28.83,101.605
					c1.549,1.328,6.594-4.965,8.429-3.393l2.945,2.521c-1.833-1.569-6.88,4.723-8.429,3.396L28.83,101.605z"/>
				<path fill="#85C441" stroke="#000000" stroke-width="0.6521" d="M30.894,92.759c1.546,1.325-3.9,7.277-2.064,8.849l2.945,2.524
					c-1.833-1.573,3.611-7.522,2.065-8.849L30.894,92.759z"/>
			</g>
			<g>
				<path opacity="0.7" fill="#85C441" stroke="#000000" stroke-width="0.6521" enable-background="new    " d="M35.644,107.42
					c1.732,1.075,5.756-5.915,7.809-4.643l3.295,2.043c-2.053-1.272-6.076,5.718-7.809,4.645L35.644,107.42z"/>
				<path fill="#85C441" stroke="#000000" stroke-width="0.6521" d="M36.329,98.361c1.733,1.072-2.737,7.787-0.685,9.059
					l3.296,2.045c-2.053-1.271,2.419-7.986,0.686-9.061L36.329,98.361z"/>
			</g>
			<g>
				<path opacity="0.7" fill="#85C441" stroke="#000000" stroke-width="0.6521" enable-background="new    " d="M43.317,112.041
					c1.877,0.792,4.769-6.738,6.996-5.798l3.571,1.509c-2.224-0.939-5.116,6.59-6.994,5.796L43.317,112.041z"/>
				<path fill="#85C441" stroke="#000000" stroke-width="0.6521" d="M42.59,102.982c1.877,0.793-1.498,8.119,0.727,9.059
					l3.572,1.507c-2.225-0.938,1.151-8.264-0.726-9.056L42.59,102.982z"/>
			</g>
			<g>
				<path opacity="0.7" fill="#85C441" stroke="#000000" stroke-width="0.6521" enable-background="new    " d="M51.652,115.336
					c1.979,0.486,3.649-7.406,5.995-6.828l3.766,0.926c-2.347-0.576-4.015,7.315-5.995,6.827L51.652,115.336z"/>
				<path fill="#85C441" stroke="#000000" stroke-width="0.6521" d="M49.506,106.508c1.979,0.485-0.199,8.252,2.146,8.828
					l3.765,0.925c-2.345-0.575-0.166-8.342-2.145-8.827L49.506,106.508z"/>
			</g>
			<g>
				<path opacity="0.7" fill="#85C441" stroke="#000000" stroke-width="0.6521" enable-background="new    " d="M60.423,117.209
					c2.033,0.163,2.415-7.895,4.823-7.701l3.869,0.311c-2.409-0.192-2.793,7.863-4.826,7.701L60.423,117.209z"/>
				<path fill="#85C441" stroke="#000000" stroke-width="0.6521" d="M56.893,108.838c2.029,0.162,1.124,8.18,3.531,8.371
					l3.866,0.311c-2.408-0.192-1.501-8.209-3.534-8.369L56.893,108.838z"/>
			</g>
			<g>
				<path opacity="0.7" fill="#85C441" stroke="#000000" stroke-width="0.6521" enable-background="new    " d="M69.385,117.622
					c2.033-0.166,1.118-8.181,3.526-8.374l3.865-0.314c-2.408,0.194-1.494,8.211-3.525,8.375L69.385,117.622z"/>
				<path fill="#85C441" stroke="#000000" stroke-width="0.6521" d="M64.553,109.926c2.033-0.164,2.426,7.891,4.832,7.696
					l3.866-0.313c-2.408,0.195-2.798-7.86-4.829-7.697L64.553,109.926z"/>
			</g>
			<g>
				<path opacity="0.7" fill="#85C441" stroke="#000000" stroke-width="0.6521" enable-background="new    " d="M78.291,116.562
					c1.979-0.488-0.21-8.25,2.138-8.832l3.765-0.928c-2.346,0.577-0.16,8.342-2.137,8.831L78.291,116.562z"/>
				<path fill="#85C441" stroke="#000000" stroke-width="0.6521" d="M72.289,109.739c1.977-0.487,3.654,7.399,6.002,6.821
					l3.766-0.928c-2.346,0.578-4.023-7.312-6.003-6.824L72.289,109.739z"/>
			</g>
			<g>
				<path opacity="0.7" fill="#85C441" stroke="#000000" stroke-width="0.6521" enable-background="new    " d="M86.881,114.036
					c1.878-0.794-1.506-8.116,0.72-9.058l3.57-1.513c-2.224,0.941,1.159,8.265-0.718,9.058L86.881,114.036z"/>
				<path fill="#85C441" stroke="#000000" stroke-width="0.6521" d="M79.88,108.246c1.877-0.793,4.777,6.73,7.001,5.79l3.572-1.513
					c-2.226,0.941-5.126-6.584-7.001-5.789L79.88,108.246z"/>
			</g>
			<g>
				<path opacity="0.7" fill="#85C441" stroke="#000000" stroke-width="0.6521" enable-background="new    " d="M94.921,110.123
					c1.731-1.075-2.746-7.783-0.693-9.059l3.294-2.049c-2.053,1.275,2.426,7.985,0.694,9.061L94.921,110.123z"/>
				<path fill="#85C441" stroke="#000000" stroke-width="0.6521" d="M87.106,105.488c1.732-1.076,5.764,5.91,7.814,4.635
					l3.295-2.046c-2.051,1.274-6.085-5.712-7.814-4.638L87.106,105.488z"/>
			</g>
			<g>
				<path opacity="0.7" fill="#85C441" stroke="#000000" stroke-width="0.6521" enable-background="new    " d="M102.197,104.945
					c1.548-1.328-3.901-7.272-2.07-8.848l2.944-2.527c-1.836,1.574,3.617,7.521,2.069,8.849L102.197,104.945z"/>
				<path fill="#85C441" stroke="#000000" stroke-width="0.6521" d="M93.768,101.561c1.546-1.328,6.599,4.959,8.43,3.385
					l2.943-2.524c-1.831,1.572-6.886-4.715-8.432-3.386L93.768,101.561z"/>
			</g>
			<g>
				<path opacity="0.7" fill="#85C441" stroke="#000000" stroke-width="0.6521" enable-background="new    " d="M108.529,98.648
					c1.328-1.549-4.964-6.594-3.393-8.429l2.521-2.946c-1.569,1.834,4.724,6.881,3.397,8.429L108.529,98.648z"/>
				<path fill="#85C441" stroke="#000000" stroke-width="0.6521" d="M99.681,96.585c1.324-1.547,7.276,3.896,8.849,2.063
					l2.525-2.946c-1.572,1.836-7.524-3.611-8.849-2.063L99.681,96.585z"/>
			</g>
			<g>
				<path opacity="0.7" fill="#85C441" stroke="#000000" stroke-width="0.6521" enable-background="new    " d="M113.744,91.396
					c1.075-1.73-5.913-5.756-4.643-7.81l2.046-3.297c-1.274,2.053,5.718,6.078,4.643,7.81L113.744,91.396z"/>
				<path fill="#85C441" stroke="#000000" stroke-width="0.6521" d="M104.686,90.713c1.075-1.732,7.786,2.737,9.059,0.686
					l2.046-3.295c-1.271,2.053-7.987-2.42-9.061-0.688L104.686,90.713z"/>
			</g>
			<g>
				<path opacity="0.7" fill="#85C441" stroke="#000000" stroke-width="0.6521" enable-background="new    " d="M117.7,83.38
					c0.793-1.878-6.737-4.771-5.794-6.997l1.506-3.572c-0.94,2.225,6.592,5.117,5.799,6.994L117.7,83.38z"/>
				<path fill="#85C441" stroke="#000000" stroke-width="0.6521" d="M108.642,84.105c0.796-1.877,8.12,1.498,9.059-0.727
					l1.511-3.572c-0.94,2.226-8.268-1.152-9.061,0.727L108.642,84.105z"/>
			</g>
			<g>
				<path opacity="0.7" fill="#85C441" stroke="#000000" stroke-width="0.6521" enable-background="new    " d="M120.273,74.803
					c0.487-1.979-7.405-3.646-6.83-5.994l0.925-3.77c-0.576,2.35,7.316,4.02,6.83,5.998L120.273,74.803z"/>
				<path fill="#85C441" stroke="#000000" stroke-width="0.6521" d="M111.442,76.95c0.487-1.979,8.254,0.198,8.831-2.147
					l0.925-3.766c-0.576,2.346-8.341,0.167-8.828,2.146L111.442,76.95z"/>
			</g>
			<g>
				<path opacity="0.7" fill="#85C441" stroke="#000000" stroke-width="0.6521" enable-background="new    " d="M121.381,65.906
					c0.162-2.033-7.895-2.416-7.701-4.824l0.308-3.867c-0.191,2.408,7.866,2.791,7.703,4.823L121.381,65.906z"/>
				<path fill="#85C441" stroke="#000000" stroke-width="0.6521" d="M113.01,69.441c0.162-2.031,8.18-1.127,8.371-3.535l0.31-3.868
					c-0.192,2.409-8.208,1.502-8.371,3.536L113.01,69.441z"/>
			</g>
		</g>
	</g>
	<g enable-background="new    ">
		<path fill="#88BC40" d="M213.775,52.091c0,2-1.383,2.666-2.051,2.666c-0.401,0-0.758-0.359-1.025-0.718
			c-1.783-2.358-2.631-2.922-3.522-2.922c-0.624,0-1.159,0.667-1.159,1.333c0,0.564,0.268,1.282,1.159,2.307l1.694,2
			c1.561,1.846,2.273,3.435,2.273,5.229c0,2.102-0.98,4.102-2.675,5.691c-1.517,1.487-3.433,2.256-5.573,2.256
			c-2.051,0-4.414-1.436-4.414-3.948c0-1.641,1.025-2.973,2.185-2.973c0.491,0,0.847,0.512,1.382,1.127
			c1.739,2.103,2.631,2.666,3.522,2.666c0.803,0,1.517-0.717,1.517-1.486c0-0.718-0.402-1.538-1.293-2.615l-1.472-1.794
			c-1.382-1.641-2.185-3.333-2.185-5.178c0-2.205,1.159-4.255,2.496-5.588c1.293-1.23,2.943-2.153,4.771-2.153
			C211.813,47.989,213.775,49.784,213.775,52.091z"/>
		<path fill="#88BC40" d="M224.966,51.373l-4.146,13.279c-0.223,0.717-0.223,1.179,0.268,1.179c0.803,0,2.942-1.846,4.726-3.948
			c0.67,0.051,0.938,0.513,0.893,1.179c-1.516,2.615-6.064,6.87-9.721,6.87c-1.203,0-2.051-1.128-2.051-2.204
			c0-0.719,0.09-1.385,0.49-2.77l4.059-13.586h-3.3c-0.446-0.41-0.134-1.641,0.356-1.948l3.879-0.923l3.211-4.922
			c0.4-0.308,0.98-0.41,1.516-0.41c0.624,0,1.382,0.308,1.649,0.872l-1.204,4.666h4.102c0.714,0.667,0.224,2.307-0.223,2.666
			H224.966z"/>
		<path fill="#88BC40" d="M247.214,55.475c0,3.691-1.561,7.998-4.146,10.869c-2.318,2.563-4.993,3.589-7.579,3.589
			c-4.549,0-6.51-3.538-6.466-7.126c0.045-3.948,1.694-8.614,4.682-11.587c2.586-2.563,4.949-3.23,6.956-3.23
			C245.43,47.989,247.214,51.783,247.214,55.475z M238.564,52.193c-1.605,2.307-4.414,8.459-4.414,13.381
			c0,1.282,0.535,2.103,1.382,2.103c1.114,0,2.096-1.179,3.3-3.435c1.203-2.308,3.389-7.947,3.389-11.844
			c0-1.077-0.268-2.153-1.249-2.153C240.258,50.245,239.5,50.86,238.564,52.193z"/>
		<path fill="#88BC40" d="M259.697,51.219l-2.096,6.306h0.179c2.586-4.153,6.063-9.536,10.433-9.536
			c2.007,0,2.809,1.641,2.809,2.974c0,1.23-0.355,2.974-0.891,4.563c-0.848,2.563-1.963,5.537-3.3,9.177
			c-0.268,0.718-0.179,1.128,0.179,1.128c0.668,0,2.809-1.999,3.968-3.486c0.491-0.103,0.937,0.308,0.892,0.974
			c-1.248,2.564-4.949,6.614-9.363,6.614c-1.025,0-1.917-1.077-1.917-1.999c0-0.77,0.312-1.795,0.669-2.77
			c1.338-3.588,2.676-7.126,3.79-10.715c0.401-1.23,0.579-1.897,0.579-2.41c0-0.41-0.178-0.718-0.579-0.718
			c-0.624,0-1.828,0.974-3.389,3.281c-2.497,3.691-4.905,9.485-6.911,14.407c-0.312,0.718-1.159,0.923-2.141,0.923
			c-1.113,0-2.854-0.41-2.407-2.051c0.224-0.718,3.612-11.689,4.28-13.894c0.312-1.025,0.357-1.846-0.178-1.846
			c-0.937,0-2.765,1.641-3.79,2.769c-0.446,0-0.759-0.41-0.803-0.82c1.159-2.666,4.904-6.101,8.517-6.101
			C260.277,47.989,260.099,50.04,259.697,51.219z"/>
		<path fill="#88BC40" d="M291.085,52.091c0,5.281-7.624,7.742-11.235,8.818c-0.179,0.615-0.223,1.384-0.223,2.461
			c0,1.384,0.579,2.819,1.916,2.819c1.605,0,3.746-1.23,5.797-3.588c0.49,0,0.936,0.512,0.892,1.179
			c-2.14,3.845-5.707,6.152-9.72,6.152c-3.211,0-4.771-2.614-4.771-5.896c0-4.615,2.497-9.998,6.019-13.074
			c2.497-2.205,4.904-2.974,7-2.974C289.346,47.989,291.085,49.835,291.085,52.091z M283.282,51.578
			c-1.604,2-2.675,5.178-3.076,7.075c1.561-0.513,2.942-1.384,4.235-2.922c0.893-1.077,1.561-3.025,1.605-4.307
			c0-0.564-0.312-1.179-0.848-1.179C284.62,50.245,283.951,50.707,283.282,51.578z"/>
	</g>
	<g enable-background="new    ">
		<path d="M138.86,51.219l-2.006,6.05h0.089c2.408-3.999,6.197-9.28,9.942-9.28c1.962,0,2.453,1.641,2.453,2.974
			c0,1.025-0.803,3.23-1.917,6.306h0.134c3.032-5.486,6.732-9.28,9.943-9.28c2.051,0,2.942,1.794,2.942,3.127
			c0,1.23-0.356,2.82-0.892,4.409c-0.847,2.563-1.962,5.537-3.299,9.177c-0.268,0.718-0.178,1.128,0.178,1.128
			c0.803,0,2.72-1.999,3.968-3.486c0.49-0.103,0.938,0.308,0.893,0.974c-1.249,2.564-4.949,6.614-9.408,6.614
			c-1.025,0-1.917-1.077-1.917-1.999c0-0.77,0.312-1.795,0.669-2.77c1.337-3.588,2.675-7.126,3.79-10.715
			c0.401-1.23,0.58-1.897,0.58-2.41c0-0.41-0.178-0.718-0.624-0.718c-0.491,0-1.694,0.974-3.255,3.281
			c-2.542,3.64-4.86,9.485-6.777,14.202c-0.356,0.923-0.892,1.128-1.828,1.128c-1.962,0-3.389-0.563-3.077-1.641
			c0.178-0.615,2.809-8.459,4.637-13.843c0.446-1.23,0.624-1.897,0.624-2.41c0-0.41-0.268-0.718-0.624-0.718
			c-0.58,0-1.917,0.974-3.656,3.486c-2.363,3.435-4.637,9.28-6.465,14.202c-0.268,0.718-0.713,0.923-1.739,0.923
			c-1.917,0-3.344-0.563-3.032-1.641c0.179-0.667,3.745-12.1,4.414-14.304c0.535-1.743,0.357-2.102-0.312-2.102
			c-1.516,0-2.809,1.897-3.611,2.922c-0.491,0.051-0.937-0.41-0.981-0.974c1.293-3.333,4.146-5.845,8.427-5.845
			C139.306,47.989,139.306,49.835,138.86,51.219z"/>
		<path d="M169.846,65.062c-0.178,0.461-0.134,0.769,0.179,0.769c0.624,0,3.076-1.999,4.19-3.229c0.535,0,0.981,0.563,0.848,1.23
			c-1.738,2.666-5.707,6.101-9.363,6.101c-1.159,0-2.051-1.436-2.051-2.051c0-0.563,0.178-1.179,0.535-2.204l4.637-12.767
			c0.134-0.41,0.134-0.718-0.089-0.718c-0.759,0-3.255,2.153-3.968,2.922c-0.535-0.103-0.893-0.769-0.714-1.23
			c2.407-3.384,6.599-5.896,8.962-5.896c0.98,0,2.051,1.128,2.051,2.256c0,0.513-0.312,1.487-0.58,2.256L169.846,65.062z
			 M174.929,36.761c1.517,0,2.497,1.077,2.497,3.025c0,2.256-1.338,4.153-3.389,4.153c-1.65,0-2.631-1.282-2.631-2.922
			C171.406,38.761,172.878,36.761,174.929,36.761z"/>
		<path d="M176.578,67.729c0-0.77,0.178-1.641,0.623-3.076l7.625-25.379c0.535-1.846,0.49-2.41-0.312-2.922l-1.248-0.82
			c-0.134-0.41-0.134-0.872,0.223-1.23c1.427-0.667,5.975-1.641,8.204-1.743c0.312,0.051,0.446,0.205,0.446,0.513
			c-0.67,2.153-1.293,3.999-2.096,6.716l-7.312,24.353c-0.445,1.436-0.58,2.359,0.045,2.359c0.98,0,3.566-3.128,4.637-4.563
			c0.49-0.051,0.937,0.462,0.848,1.128c-1.293,2.871-3.746,6.87-8.828,6.87C177.201,69.933,176.578,68.754,176.578,67.729z"/>
		<path d="M188.838,67.729c0-0.77,0.179-1.641,0.625-3.076l7.624-25.379c0.535-1.846,0.49-2.41-0.312-2.922l-1.249-0.82
			c-0.134-0.41-0.134-0.872,0.223-1.23c1.427-0.667,5.975-1.641,8.204-1.743c0.312,0.051,0.445,0.205,0.445,0.513
			c-0.668,2.153-1.293,3.999-2.096,6.716l-7.312,24.353c-0.446,1.436-0.579,2.359,0.044,2.359c0.981,0,3.567-3.128,4.638-4.563
			c0.49-0.051,0.937,0.462,0.847,1.128c-1.293,2.871-3.744,6.87-8.828,6.87C189.463,69.933,188.838,68.754,188.838,67.729z"/>
	</g>
	<g enable-background="new    ">
		<path d="M126.609,89.954c0.348,0.228,0.935,0.384,1.535,0.384c0.983,0,1.751-0.492,2.086-2.062l0.192-0.876h-0.024
			c-0.516,0.827-1.223,1.235-2.015,1.235c-1.175,0-1.775-0.983-1.775-2.015c0-1.967,1.439-3.922,3.682-3.922
			c0.672,0,1.416,0.191,1.871,0.407l-0.899,4.798c-0.228,1.235-0.564,2.075-1.164,2.603c-0.587,0.491-1.367,0.636-2.027,0.636
			c-0.708,0-1.379-0.168-1.739-0.408L126.609,89.954z M131.07,83.693c-0.192-0.084-0.552-0.191-0.959-0.191
			c-1.451,0-2.458,1.522-2.458,2.95c-0.012,0.647,0.228,1.391,1.115,1.391c0.852,0,1.715-1.079,1.931-2.206L131.07,83.693z"/>
		<path d="M137.022,88.311c-0.432,0.24-1.139,0.456-1.919,0.456c-1.535,0-2.207-1.056-2.207-2.339c0-1.751,1.295-3.729,3.166-3.729
			c1.104,0,1.703,0.659,1.703,1.499c0,1.523-1.715,1.919-3.862,1.883c-0.048,0.252-0.012,0.792,0.12,1.104
			c0.228,0.527,0.696,0.779,1.295,0.779c0.684,0,1.199-0.204,1.559-0.396L137.022,88.311z M135.919,83.478
			c-0.947,0-1.655,0.924-1.907,1.835c1.571,0.024,2.794-0.191,2.794-1.104C136.807,83.741,136.447,83.478,135.919,83.478z"/>
		<path d="M138.284,88.635l0.768-4.113c0.132-0.648,0.216-1.212,0.276-1.691h0.888l-0.144,1.14h0.024
			c0.516-0.816,1.308-1.271,2.147-1.271c0.696,0,1.475,0.396,1.475,1.606c0,0.265-0.048,0.624-0.108,0.936l-0.647,3.395h-0.983
			l0.635-3.358c0.036-0.228,0.072-0.491,0.072-0.743c0-0.576-0.228-1.008-0.912-1.008c-0.708,0-1.715,0.852-1.979,2.291
			l-0.528,2.818H138.284z"/>
		<path d="M150.257,85.108c0,1.8-1.271,3.658-3.226,3.658c-1.451,0-2.267-1.079-2.267-2.387c0-1.919,1.331-3.682,3.214-3.682
			C149.55,82.698,150.257,83.886,150.257,85.108z M145.796,86.344c0,0.947,0.528,1.632,1.367,1.632c1.175,0,2.063-1.512,2.063-2.867
			c0-0.671-0.312-1.619-1.355-1.619C146.624,83.489,145.796,85.013,145.796,86.344z"/>
		<path d="M150.956,88.635l0.768-4.113c0.12-0.648,0.204-1.212,0.264-1.691h0.875l-0.144,1.091h0.024
			c0.54-0.815,1.271-1.223,2.039-1.223c0.887,0,1.307,0.563,1.355,1.295c0.516-0.84,1.259-1.283,2.123-1.295
			c0.672,0,1.416,0.432,1.416,1.522c0,0.265-0.036,0.66-0.096,0.984l-0.648,3.43h-0.971l0.623-3.346
			c0.048-0.229,0.084-0.517,0.084-0.756c0-0.612-0.229-1.008-0.875-1.008c-0.721,0-1.583,0.84-1.824,2.135l-0.551,2.975h-0.959
			l0.647-3.406c0.048-0.264,0.072-0.479,0.072-0.707c0-0.492-0.132-0.996-0.863-0.996c-0.72,0-1.631,0.96-1.859,2.195l-0.528,2.914
			H150.956z"/>
		<path d="M164.826,88.311c-0.432,0.24-1.14,0.456-1.92,0.456c-1.535,0-2.206-1.056-2.206-2.339c0-1.751,1.295-3.729,3.166-3.729
			c1.104,0,1.703,0.659,1.703,1.499c0,1.523-1.715,1.919-3.862,1.883c-0.047,0.252-0.012,0.792,0.12,1.104
			c0.228,0.527,0.696,0.779,1.296,0.779c0.684,0,1.199-0.204,1.559-0.396L164.826,88.311z M163.723,83.478
			c-0.947,0-1.655,0.924-1.907,1.835c1.571,0.024,2.794-0.191,2.794-1.104C164.609,83.741,164.25,83.478,163.723,83.478z"/>
		<path d="M174.425,80.119l-1.271,6.669c-0.108,0.611-0.204,1.283-0.239,1.847h-0.912l0.156-1.151h-0.024
			c-0.527,0.827-1.259,1.283-2.087,1.283c-1.127,0-1.738-0.924-1.738-2.11c0-2.063,1.535-3.958,3.586-3.958
			c0.371,0,0.779,0.084,1.031,0.204l0.516-2.783H174.425z M172.758,83.741c-0.191-0.144-0.527-0.252-0.947-0.252
			c-1.392,0-2.471,1.487-2.471,3.034c0,0.696,0.24,1.428,1.092,1.428c0.768,0,1.69-0.876,1.942-2.183L172.758,83.741z"/>
		<path d="M178.746,88.311c-0.432,0.24-1.14,0.456-1.92,0.456c-1.535,0-2.206-1.056-2.206-2.339c0-1.751,1.295-3.729,3.166-3.729
			c1.104,0,1.703,0.659,1.703,1.499c0,1.523-1.715,1.919-3.862,1.883c-0.047,0.252-0.012,0.792,0.12,1.104
			c0.228,0.527,0.696,0.779,1.296,0.779c0.684,0,1.199-0.204,1.559-0.396L178.746,88.311z M177.643,83.478
			c-0.947,0-1.655,0.924-1.907,1.835c1.571,0.024,2.794-0.191,2.794-1.104C178.529,83.741,178.17,83.478,177.643,83.478z"/>
		<path d="M180.057,87.627c0.275,0.168,0.768,0.36,1.246,0.36c0.672,0,1.104-0.432,1.104-0.947c0-0.456-0.203-0.732-0.814-1.067
			c-0.672-0.372-1.044-0.888-1.044-1.487c0-1.008,0.876-1.787,2.099-1.787c0.527,0,0.996,0.144,1.211,0.288l-0.275,0.755
			c-0.204-0.12-0.576-0.264-1.008-0.264c-0.6,0-1.031,0.372-1.031,0.876c0,0.419,0.275,0.684,0.804,0.971
			c0.647,0.36,1.079,0.876,1.079,1.523c0,1.224-0.983,1.907-2.207,1.907c-0.623-0.012-1.188-0.192-1.451-0.396L180.057,87.627z"/>
		<path d="M184.472,88.635l1.115-5.805h0.983l-1.104,5.805H184.472z M185.767,81.223c0.013-0.384,0.3-0.672,0.647-0.672
			c0.36,0,0.6,0.265,0.6,0.624c-0.012,0.396-0.287,0.672-0.684,0.672C185.982,81.847,185.767,81.583,185.767,81.223z"/>
		<path d="M187.279,89.954c0.348,0.228,0.936,0.384,1.535,0.384c0.984,0,1.752-0.492,2.087-2.062l0.192-0.876h-0.024
			c-0.516,0.827-1.224,1.235-2.015,1.235c-1.176,0-1.775-0.983-1.775-2.015c0-1.967,1.439-3.922,3.682-3.922
			c0.672,0,1.416,0.191,1.871,0.407l-0.898,4.798c-0.229,1.235-0.564,2.075-1.164,2.603c-0.588,0.491-1.367,0.636-2.027,0.636
			c-0.707,0-1.379-0.168-1.738-0.408L187.279,89.954z M191.741,83.693c-0.192-0.084-0.552-0.191-0.96-0.191
			c-1.451,0-2.458,1.522-2.458,2.95c-0.013,0.647,0.228,1.391,1.115,1.391c0.852,0,1.715-1.079,1.931-2.206L191.741,83.693z"/>
		<path d="M193.52,88.635l0.768-4.113c0.132-0.648,0.215-1.212,0.275-1.691h0.888l-0.144,1.14h0.023
			c0.516-0.816,1.308-1.271,2.146-1.271c0.696,0,1.476,0.396,1.476,1.606c0,0.265-0.048,0.624-0.108,0.936l-0.646,3.395h-0.984
			l0.636-3.358c0.036-0.228,0.072-0.491,0.072-0.743c0-0.576-0.228-1.008-0.911-1.008c-0.708,0-1.715,0.852-1.979,2.291
			l-0.528,2.818H193.52z"/>
		<path d="M205.949,88.635c0-0.348,0.06-0.899,0.132-1.499h-0.024c-0.623,1.211-1.428,1.631-2.254,1.631
			c-1.032,0-1.668-0.815-1.668-1.919c0-2.026,1.487-4.149,4.018-4.149c0.564,0,1.164,0.096,1.572,0.216l-0.601,3.034
			c-0.192,1.008-0.264,2.039-0.239,2.687H205.949z M206.597,83.573c-0.132-0.048-0.349-0.084-0.684-0.084
			c-1.511,0-2.747,1.56-2.747,3.179c0,0.647,0.229,1.283,0.996,1.283c0.827,0,1.811-1.079,2.099-2.627L206.597,83.573z"/>
		<path d="M208.375,88.635l0.768-4.113c0.132-0.648,0.216-1.212,0.275-1.691h0.889l-0.145,1.14h0.023
			c0.516-0.816,1.309-1.271,2.147-1.271c0.696,0,1.476,0.396,1.476,1.606c0,0.265-0.049,0.624-0.108,0.936l-0.647,3.395h-0.983
			l0.636-3.358c0.035-0.228,0.072-0.491,0.072-0.743c0-0.576-0.229-1.008-0.912-1.008c-0.707,0-1.715,0.852-1.979,2.291
			l-0.528,2.818H208.375z"/>
		<path d="M220.936,80.119l-1.271,6.669c-0.107,0.611-0.203,1.283-0.24,1.847h-0.911l0.156-1.151h-0.024
			c-0.527,0.827-1.26,1.283-2.086,1.283c-1.128,0-1.74-0.924-1.74-2.11c0-2.063,1.535-3.958,3.586-3.958
			c0.373,0,0.78,0.084,1.032,0.204l0.516-2.783H220.936z M219.269,83.741c-0.192-0.144-0.528-0.252-0.948-0.252
			c-1.391,0-2.471,1.487-2.471,3.034c0,0.696,0.24,1.428,1.092,1.428c0.768,0,1.691-0.876,1.943-2.183L219.269,83.741z"/>
		<path d="M227.104,88.635c0-0.348,0.06-0.899,0.132-1.499h-0.023c-0.624,1.211-1.428,1.631-2.255,1.631
			c-1.032,0-1.667-0.815-1.667-1.919c0-2.026,1.486-4.149,4.018-4.149c0.563,0,1.163,0.096,1.571,0.216l-0.601,3.034
			c-0.191,1.008-0.264,2.039-0.239,2.687H227.104z M227.752,83.573c-0.132-0.048-0.348-0.084-0.684-0.084
			c-1.511,0-2.746,1.56-2.746,3.179c0,0.647,0.228,1.283,0.995,1.283c0.827,0,1.812-1.079,2.099-2.627L227.752,83.573z"/>
		<path d="M229.53,88.635l0.768-4.113c0.132-0.648,0.216-1.212,0.276-1.691h0.887l-0.144,1.14h0.024
			c0.516-0.816,1.307-1.271,2.146-1.271c0.695,0,1.475,0.396,1.475,1.606c0,0.265-0.047,0.624-0.107,0.936l-0.647,3.395h-0.983
			l0.635-3.358c0.037-0.228,0.072-0.491,0.072-0.743c0-0.576-0.228-1.008-0.911-1.008c-0.708,0-1.715,0.852-1.979,2.291
			l-0.527,2.818H229.53z"/>
		<path d="M239.776,88.635c0-0.348,0.06-0.899,0.132-1.499h-0.023c-0.624,1.211-1.428,1.631-2.255,1.631
			c-1.032,0-1.667-0.815-1.667-1.919c0-2.026,1.486-4.149,4.018-4.149c0.563,0,1.163,0.096,1.571,0.216l-0.601,3.034
			c-0.191,1.008-0.264,2.039-0.239,2.687H239.776z M240.424,83.573c-0.132-0.048-0.348-0.084-0.684-0.084
			c-1.511,0-2.746,1.56-2.746,3.179c0,0.647,0.228,1.283,0.995,1.283c0.827,0,1.812-1.079,2.099-2.627L240.424,83.573z"/>
		<path d="M242.202,88.635l1.619-8.516h0.995l-1.619,8.516H242.202z"/>
		<path d="M246.209,82.83l0.576,3.118c0.133,0.672,0.204,1.104,0.264,1.535h0.024c0.155-0.372,0.323-0.779,0.624-1.427l1.486-3.227
			h1.056l-2.183,4.413c-0.623,1.248-1.211,2.268-2.003,3.047c-0.647,0.659-1.355,0.936-1.679,1.007l-0.252-0.863
			c0.252-0.084,0.672-0.239,1.067-0.552c0.396-0.3,0.815-0.768,1.127-1.343c0.048-0.096,0.048-0.156,0.024-0.264l-1.164-5.445
			H246.209z"/>
		<path d="M250.291,87.627c0.275,0.168,0.768,0.36,1.246,0.36c0.672,0,1.104-0.432,1.104-0.947c0-0.456-0.203-0.732-0.814-1.067
			c-0.672-0.372-1.044-0.888-1.044-1.487c0-1.008,0.876-1.787,2.099-1.787c0.527,0,0.996,0.144,1.211,0.288l-0.275,0.755
			c-0.204-0.12-0.576-0.264-1.008-0.264c-0.6,0-1.031,0.372-1.031,0.876c0,0.419,0.275,0.684,0.804,0.971
			c0.647,0.36,1.079,0.876,1.079,1.523c0,1.224-0.983,1.907-2.207,1.907c-0.623-0.012-1.188-0.192-1.451-0.396L250.291,87.627z"/>
		<path d="M254.706,88.635l1.115-5.805h0.983l-1.104,5.805H254.706z M256.001,81.223c0.013-0.384,0.3-0.672,0.647-0.672
			c0.36,0,0.6,0.265,0.6,0.624c-0.012,0.396-0.287,0.672-0.684,0.672C256.217,81.847,256.001,81.583,256.001,81.223z"/>
		<path d="M257.514,87.627c0.276,0.168,0.768,0.36,1.248,0.36c0.672,0,1.104-0.432,1.104-0.947c0-0.456-0.205-0.732-0.816-1.067
			c-0.672-0.372-1.043-0.888-1.043-1.487c0-1.008,0.875-1.787,2.099-1.787c0.528,0,0.995,0.144,1.212,0.288l-0.276,0.755
			c-0.204-0.12-0.575-0.264-1.007-0.264c-0.6,0-1.032,0.372-1.032,0.876c0,0.419,0.276,0.684,0.804,0.971
			c0.647,0.36,1.08,0.876,1.08,1.523c0,1.224-0.984,1.907-2.207,1.907c-0.624-0.012-1.188-0.192-1.451-0.396L257.514,87.627z"/>
		<path d="M126.681,103.035l0.959-5.025h-0.78l0.156-0.779h0.768l0.06-0.312c0.144-0.804,0.432-1.548,0.948-2.016
			c0.372-0.336,0.875-0.516,1.379-0.516c0.396,0,0.66,0.072,0.803,0.156l-0.216,0.791c-0.156-0.071-0.36-0.107-0.587-0.107
			c-0.792,0-1.176,0.768-1.343,1.727l-0.048,0.276h1.284l-0.144,0.779h-1.295l-0.947,5.025H126.681z"/>
		<path d="M135.521,99.509c0,1.8-1.271,3.658-3.226,3.658c-1.451,0-2.267-1.079-2.267-2.387c0-1.919,1.331-3.682,3.214-3.682
			C134.814,97.099,135.521,98.286,135.521,99.509z M131.06,100.744c0,0.947,0.528,1.632,1.367,1.632
			c1.175,0,2.063-1.512,2.063-2.867c0-0.671-0.312-1.619-1.355-1.619C131.888,97.89,131.06,99.413,131.06,100.744z"/>
		<path d="M136.22,103.035l0.708-3.742c0.132-0.755,0.228-1.522,0.288-2.062h0.875c-0.048,0.407-0.096,0.815-0.156,1.259h0.036
			c0.372-0.791,0.996-1.391,1.775-1.391c0.096,0,0.204,0.012,0.288,0.023l-0.192,0.983c-0.072-0.012-0.168-0.023-0.276-0.023
			c-0.863,0-1.631,1.043-1.883,2.398l-0.48,2.555H136.22z"/>
		<path d="M142.269,102.027c0.275,0.168,0.768,0.36,1.247,0.36c0.672,0,1.104-0.432,1.104-0.947c0-0.456-0.204-0.732-0.815-1.067
			c-0.672-0.372-1.043-0.888-1.043-1.487c0-1.008,0.875-1.787,2.099-1.787c0.528,0,0.996,0.144,1.211,0.288l-0.276,0.755
			c-0.204-0.12-0.576-0.264-1.007-0.264c-0.6,0-1.032,0.372-1.032,0.876c0,0.419,0.276,0.684,0.804,0.971
			c0.647,0.36,1.08,0.876,1.08,1.523c0,1.224-0.983,1.907-2.207,1.907c-0.624-0.012-1.188-0.192-1.451-0.396L142.269,102.027z"/>
		<path d="M147.955,97.23l0.576,3.118c0.132,0.672,0.204,1.104,0.264,1.535h0.024c0.156-0.372,0.324-0.779,0.624-1.427l1.487-3.227
			h1.055l-2.183,4.413c-0.624,1.248-1.211,2.268-2.003,3.047c-0.647,0.659-1.355,0.936-1.679,1.007l-0.252-0.863
			c0.252-0.084,0.672-0.239,1.068-0.552c0.396-0.3,0.815-0.768,1.127-1.343c0.048-0.096,0.048-0.156,0.024-0.264l-1.164-5.445
			H147.955z"/>
		<path d="M151.988,103.035l0.768-4.113c0.132-0.648,0.216-1.212,0.276-1.691h0.888l-0.144,1.14h0.024
			c0.516-0.816,1.308-1.271,2.147-1.271c0.696,0,1.475,0.396,1.475,1.606c0,0.265-0.048,0.624-0.108,0.936l-0.646,3.395h-0.984
			l0.635-3.358c0.036-0.228,0.072-0.491,0.072-0.743c0-0.576-0.228-1.008-0.912-1.008c-0.708,0-1.715,0.852-1.979,2.291
			l-0.528,2.818H151.988z"/>
		<path d="M160.951,95.839l-0.264,1.392h1.391l-0.156,0.779h-1.391l-0.527,2.818c-0.072,0.324-0.121,0.624-0.121,0.924
			c0,0.348,0.168,0.563,0.553,0.563c0.18,0,0.336-0.012,0.467-0.048l-0.047,0.779c-0.181,0.072-0.48,0.108-0.768,0.108
			c-0.876,0-1.225-0.528-1.225-1.128c0-0.336,0.049-0.659,0.133-1.079l0.563-2.938h-0.827l0.144-0.779h0.827l0.204-1.079
			L160.951,95.839z"/>
		<path d="M162.141,103.035l1.619-8.516h0.994l-0.719,3.73h0.023c0.492-0.708,1.199-1.151,2.075-1.151
			c0.659,0,1.439,0.396,1.439,1.559c0,0.3-0.036,0.684-0.097,0.972l-0.646,3.406h-0.996l0.647-3.358
			c0.036-0.204,0.072-0.479,0.072-0.804c0-0.527-0.252-0.947-0.899-0.947c-0.768,0-1.739,0.899-1.979,2.195l-0.541,2.914H162.141z"
			/>
		<path d="M172.733,102.711c-0.432,0.24-1.14,0.456-1.919,0.456c-1.535,0-2.207-1.056-2.207-2.339c0-1.751,1.295-3.729,3.166-3.729
			c1.104,0,1.703,0.659,1.703,1.499c0,1.523-1.715,1.919-3.861,1.883c-0.048,0.252-0.012,0.792,0.119,1.104
			c0.229,0.527,0.696,0.779,1.296,0.779c0.684,0,1.199-0.204,1.56-0.396L172.733,102.711z M171.63,97.878
			c-0.947,0-1.655,0.924-1.907,1.835c1.572,0.024,2.795-0.191,2.795-1.104C172.518,98.142,172.158,97.878,171.63,97.878z"/>
		<path d="M176.551,95.839l-0.264,1.392h1.391l-0.156,0.779h-1.391l-0.527,2.818c-0.072,0.324-0.121,0.624-0.121,0.924
			c0,0.348,0.168,0.563,0.553,0.563c0.18,0,0.336-0.012,0.467-0.048l-0.047,0.779c-0.181,0.072-0.48,0.108-0.768,0.108
			c-0.876,0-1.225-0.528-1.225-1.128c0-0.336,0.049-0.659,0.133-1.079l0.563-2.938h-0.827l0.144-0.779h0.827l0.204-1.079
			L176.551,95.839z"/>
		<path d="M177.74,103.035l1.115-5.805h0.982l-1.104,5.805H177.74z M179.035,95.623c0.012-0.384,0.3-0.672,0.647-0.672
			c0.36,0,0.6,0.265,0.6,0.624c-0.013,0.396-0.288,0.672-0.684,0.672C179.251,96.247,179.035,95.983,179.035,95.623z"/>
		<path d="M184.48,102.795c-0.299,0.156-0.898,0.36-1.679,0.36c-1.499,0-2.23-1.008-2.23-2.243c0-1.979,1.463-3.802,3.55-3.802
			c0.54,0,1.031,0.156,1.211,0.252l-0.287,0.792c-0.229-0.108-0.552-0.217-0.984-0.217c-1.511,0-2.458,1.487-2.458,2.854
			c0,0.936,0.491,1.548,1.439,1.548c0.6,0,1.043-0.181,1.343-0.324L184.48,102.795z"/>
		<path d="M190.313,94.52l-0.768,3.767h0.024c0.516-0.78,1.259-1.188,2.039-1.188c1.271,0,1.75,1.056,1.75,2.087
			c0,1.787-1.283,3.981-3.609,3.981c-1.02,0-1.787-0.42-1.787-1.487c0-0.288,0.048-0.636,0.107-0.911l1.248-6.249H190.313z
			 M189.055,100.792c-0.049,0.204-0.084,0.433-0.072,0.744c0,0.552,0.324,0.852,0.936,0.852c1.499,0,2.41-1.787,2.41-3.082
			c0-0.72-0.312-1.38-1.104-1.38c-0.863,0-1.75,0.888-2.039,2.255L189.055,100.792z"/>
		<path d="M194.047,103.035l1.115-5.805h0.984l-1.104,5.805H194.047z M195.343,95.623c0.012-0.384,0.3-0.672,0.647-0.672
			c0.359,0,0.6,0.265,0.6,0.624c-0.012,0.396-0.288,0.672-0.684,0.672C195.559,96.247,195.343,95.983,195.343,95.623z"/>
		<path d="M202.371,99.509c0,1.8-1.271,3.658-3.226,3.658c-1.451,0-2.267-1.079-2.267-2.387c0-1.919,1.331-3.682,3.214-3.682
			C201.664,97.099,202.371,98.286,202.371,99.509z M197.91,100.744c0,0.947,0.527,1.632,1.367,1.632
			c1.176,0,2.062-1.512,2.062-2.867c0-0.671-0.312-1.619-1.355-1.619C198.738,97.89,197.91,99.413,197.91,100.744z"/>
		<path d="M203.07,103.035l1.619-8.516h0.996l-1.619,8.516H203.07z"/>
		<path d="M211.383,99.509c0,1.8-1.271,3.658-3.226,3.658c-1.451,0-2.267-1.079-2.267-2.387c0-1.919,1.331-3.682,3.214-3.682
			C210.676,97.099,211.383,98.286,211.383,99.509z M206.922,100.744c0,0.947,0.527,1.632,1.367,1.632
			c1.176,0,2.062-1.512,2.062-2.867c0-0.671-0.312-1.619-1.355-1.619C207.75,97.89,206.922,99.413,206.922,100.744z"/>
		<path d="M212.166,104.354c0.348,0.228,0.936,0.384,1.535,0.384c0.984,0,1.752-0.492,2.087-2.062l0.192-0.876h-0.024
			c-0.516,0.827-1.224,1.235-2.015,1.235c-1.176,0-1.775-0.983-1.775-2.015c0-1.967,1.439-3.922,3.682-3.922
			c0.672,0,1.416,0.191,1.871,0.407l-0.898,4.798c-0.229,1.235-0.564,2.075-1.164,2.603c-0.588,0.491-1.367,0.636-2.027,0.636
			c-0.707,0-1.379-0.168-1.738-0.408L212.166,104.354z M216.628,98.094c-0.192-0.084-0.552-0.191-0.96-0.191
			c-1.451,0-2.458,1.522-2.458,2.95c-0.013,0.647,0.228,1.391,1.115,1.391c0.852,0,1.715-1.079,1.931-2.206L216.628,98.094z"/>
		<path d="M219.666,97.23l0.575,3.118c0.132,0.672,0.204,1.104,0.265,1.535h0.023c0.156-0.372,0.324-0.779,0.623-1.427l1.488-3.227
			h1.055l-2.183,4.413c-0.624,1.248-1.212,2.268-2.003,3.047c-0.647,0.659-1.355,0.936-1.68,1.007l-0.251-0.863
			c0.251-0.084,0.671-0.239,1.067-0.552c0.396-0.3,0.815-0.768,1.127-1.343c0.049-0.096,0.049-0.156,0.024-0.264l-1.163-5.445
			H219.666z"/>
	</g>
</g>
</svg>
