<?xml version="1.0" encoding="utf-8"?>
<!-- Generator: Adobe Illustrator 14.0.0, SVG Export Plug-In . SVG Version: 6.00 Build 43363)  -->
<!DOCTYPE svg PUBLIC "-//W3C//DTD SVG 1.1//EN" "http://www.w3.org/Graphics/SVG/1.1/DTD/svg11.dtd">
<svg version="1.1" id="Layer_1" xmlns="http://www.w3.org/2000/svg" xmlns:xlink="http://www.w3.org/1999/xlink" x="0px" y="0px"
	 width="312px" height="123px" viewBox="0 0 312 123" enable-background="new 0 0 312 123" xml:space="preserve">
<g id="Layer_2">
</g>
<g id="Layer_3">
	<text transform="matrix(1 0 0 1 124.5278 87.2314)" enable-background="new    "><tspan x="0" y="0" font-family="'MyriadPro-It'" font-size="12">genome design and analysis </tspan><tspan x="0" y="14.4" font-family="'MyriadPro-It'" font-size="12">for synthetic biology</tspan></text>
	<path fill="#43A247" d="M120.289,61.377c0,29.405-23.838,53.249-53.248,53.249c-29.412,0-53.253-23.844-53.253-53.249
		c0-29.392,23.841-53.231,53.253-53.231C96.451,8.146,120.289,31.985,120.289,61.377z"/>
	<path fill="#8DC66B" d="M114.999,71.536c-0.325,1.543-0.724,3.059-1.185,4.545L77.292,54.586c-0.794-1.185-1.795-2.215-2.939-3.057
		l39.063-5.886c0.453,1.318,0.854,2.654,1.19,4.018l-0.331-0.192l-5.922,0.805l7.139,4.204l0.041-0.057
		c0.222,1.532,0.382,3.083,0.455,4.656l-13.581-7.99l-5.924,0.811l19.511,11.465c-0.051,1.443-0.176,2.857-0.357,4.263
		l-25.325-14.89l-5.924,0.808L114.999,71.536z"/>
	<path fill="#8DC66B" d="M36.777,99.914l0.005,0.029c-1.209-0.954-2.374-1.961-3.49-3.029l15.302-3.572l3.729-4.675l-22.021,5.148
		c-0.943-1.065-1.849-2.18-2.695-3.321l28.597-6.692l3.738-4.68l-34.559,8.092c-0.513-0.833-1.013-1.677-1.479-2.544l43.433-10.915
		c0.323,0,0.651-0.012,0.975-0.045l-24.509,30.856c-1.033-0.559-2.035-1.163-3.018-1.789l0.338-0.079l3.729-4.677L36.777,99.914z"/>
	<path fill="#8DC66B" d="M18.58,68.694c-0.233-1.557-0.397-3.143-0.477-4.745l17.236,11.204l4.497-1.489l-21.75-14.127
		c0.056-1.47,0.18-2.92,0.367-4.354l26.07,16.929l4.498-1.486L19.124,51.201c0.218-1.011,0.47-2.007,0.748-2.996L57.317,69.01
		c0.823,1.051,1.809,1.973,2.93,2.716l-38.002,9.545c-1.068-2.402-1.96-4.908-2.631-7.489l6.713,4.36l4.497-1.491L18.58,68.694z"/>
	<path fill="#FFFFFF" d="M67.046,52.806c4.763,0,8.637,3.876,8.637,8.628c0,1.97-0.672,3.782-1.792,5.238l-0.277,0.357
		c-1.584,1.86-3.943,3.043-6.571,3.043c-4.763,0-8.644-3.878-8.644-8.634C58.403,56.684,62.284,52.806,67.046,52.806z"/>
	<path fill="#8DC66B" d="M102.665,27.852l-19.072,4.334l-2.066,4.264l23.887-5.426c0.868,1.091,1.697,2.223,2.478,3.391
		l-28.521,6.477l-2.063,4.269l32.61-7.408c0.79,1.413,1.505,2.867,2.15,4.361l-45.267,6.819l22.323-31.199
		c2.343,1.182,4.572,2.548,6.673,4.078l-8.066,1.835l-2.071,4.26l13.823-3.139C100.588,25.744,101.651,26.776,102.665,27.852z"/>
	<path fill="#8DC66B" d="M69.779,12.534L57.84,28.289l0.178,5.975l16.062-21.301c1.247,0.18,2.48,0.415,3.698,0.686L58.75,38.94
		l0.183,5.981L81.75,14.709c1.339,0.423,2.657,0.909,3.953,1.445L60.957,50.729c-1.437,0.818-2.682,1.91-3.684,3.204L51.31,15.054
		c2.888-0.981,5.891-1.699,8.998-2.132l-3.848,5.275l0.186,5.975l8.541-11.638l-0.05-0.037c0.633-0.022,1.269-0.05,1.91-0.05
		C67.966,12.45,68.875,12.48,69.779,12.534z"/>
	<path fill="#8DC66B" d="M32.551,26.676l3.135,20.277l4.109,2.355l-3.96-25.614c1.118-0.924,2.291-1.802,3.494-2.632l4.745,30.703
		l4.109,2.36L42.74,18.927c1.619-0.93,3.295-1.778,5.026-2.521l6.941,45.24c0.012,0.601,0.07,1.186,0.167,1.761L21.021,44.609
		c1.335-3.64,3.099-7.074,5.217-10.255l1.219,7.874l4.109,2.36l-2.227-14.399C30.352,28.967,31.427,27.796,32.551,26.676z"/>
	<path fill="#8DC66B" d="M63.825,110.316l13.133-15.79l-0.951-4.643l-16.601,19.954c-1.449-0.228-2.879-0.518-4.291-0.871
		l19.888-23.912l-0.951-4.644L51.26,107.82c-1.381-0.475-2.732-0.998-4.054-1.589l29.286-36.881c0.074-0.082,0.138-0.171,0.212-0.26
		l0.279-0.354l5.813,39.088c-2.901,0.987-5.922,1.711-9.034,2.142l5.103-6.144l-0.949-4.642l-9.323,11.214
		c-0.517,0.017-1.026,0.044-1.546,0.044C65.964,110.441,64.891,110.396,63.825,110.316z"/>
	<path fill="#8DC66B" d="M101.342,96.395l-3.026-20.286l-4.088-2.381l3.809,25.633c-1.125,0.922-2.302,1.801-3.508,2.625
		L89.959,71.24l-4.094-2.383l5.239,35.245c-1.54,0.876-3.132,1.668-4.77,2.372L79.45,60.143l33.09,19.478
		c-1.296,3.232-2.912,6.305-4.834,9.148l-1.174-7.891l-4.103-2.386l2.139,14.406C103.552,94.12,102.47,95.285,101.342,96.395z"/>
	<g>
		<text transform="matrix(1 0 0 1 125.3706 72.0293)" fill="#43A247" font-family="'HelveticaNeue-Light'" font-size="44">Millstone</text>
	</g>
</g>
</svg>
