<?xml version="1.0" encoding="utf-8"?>
<!-- Generator: Adobe Illustrator 14.0.0, SVG Export Plug-In . SVG Version: 6.00 Build 43363)  -->
<!DOCTYPE svg PUBLIC "-//W3C//DTD SVG 1.1//EN" "http://www.w3.org/Graphics/SVG/1.1/DTD/svg11.dtd">
<svg version="1.1" xmlns="http://www.w3.org/2000/svg" xmlns:xlink="http://www.w3.org/1999/xlink" x="0px" y="0px" width="312px"
	 height="123px" viewBox="0 0 312 123" enable-background="new 0 0 312 123" xml:space="preserve">
<g id="Layer_2">
</g>
<g id="Layer_3">
	<path fill="#CCCCCC" stroke="#020202" stroke-width="0.5" d="M104.863,42.837l-0.1-0.439c-0.24-0.341-0.49-0.671-0.741-1.002
		c-7.521-12.237-21.031-20.417-36.418-20.417c-23.556,0-42.719,19.164-42.719,42.717c0,23.555,19.164,42.718,42.719,42.718
		s42.719-19.163,42.719-42.718C110.323,56.125,108.334,49.011,104.863,42.837z M106.471,71.883c-0.264,1.25-0.583,2.479-0.961,3.683
		L75.911,58.137c-0.645-0.958-1.455-1.792-2.383-2.477l31.662-4.775c0.365,1.068,0.689,2.154,0.964,3.26l-0.267-0.157l-4.802,0.655
		l5.793,3.41l0.029-0.051c0.18,1.241,0.306,2.499,0.366,3.774l-11.006-6.476l-4.802,0.655l15.816,9.301
		c-0.045,1.166-0.144,2.317-0.288,3.456L86.467,56.638l-4.804,0.655L106.471,71.883z M43.074,94.883l0.005,0.021
		c-0.981-0.772-1.924-1.59-2.828-2.45l12.401-2.9l3.022-3.787l-17.846,4.176c-0.766-0.867-1.497-1.766-2.186-2.697l23.179-5.423
		l3.025-3.79l-28.005,6.555c-0.418-0.674-0.822-1.359-1.201-2.06l35.196-8.843c0.266-0.006,0.531-0.014,0.791-0.041L48.768,98.654
		c-0.835-0.452-1.648-0.94-2.446-1.449l0.274-0.064l3.023-3.787L43.074,94.883z M28.323,69.576c-0.188-1.262-0.32-2.542-0.386-3.84
		l13.972,9.078l3.646-1.209L27.924,62.153c0.046-1.193,0.147-2.37,0.297-3.533l21.131,13.728l3.646-1.21L28.765,55.396
		c0.176-0.822,0.381-1.632,0.607-2.434l30.35,16.866c0.668,0.856,1.466,1.604,2.374,2.205l-30.799,7.738
		c-0.866-1.947-1.587-3.974-2.133-6.07l5.442,3.534l3.645-1.207L28.323,69.576z M67.604,56.698c3.859,0,7,3.141,7,6.999
		c0,1.598-0.545,3.067-1.45,4.247l-0.224,0.282c-1.284,1.509-3.194,2.47-5.326,2.47c-3.86,0-7.001-3.141-7.001-6.999
		C60.604,59.839,63.745,56.698,67.604,56.698z M96.473,36.46l-15.46,3.512l-1.675,3.457l19.363-4.398
		c0.705,0.887,1.376,1.801,2.005,2.748l-23.113,5.25l-1.673,3.458l26.43-6.005c0.637,1.146,1.219,2.325,1.741,3.536l-36.688,5.532
		l18.095-25.294c1.895,0.96,3.703,2.066,5.408,3.306l-6.539,1.488l-1.675,3.455l11.201-2.544
		C94.791,34.754,95.65,35.589,96.473,36.46z M69.821,24.044l-9.677,12.772l0.148,4.844l13.012-17.266
		c1.014,0.146,2.013,0.335,3.001,0.557l-15.421,20.5l0.15,4.846l18.489-24.488c1.088,0.343,2.155,0.735,3.201,1.168L62.67,55.011
		c-1.161,0.662-2.171,1.548-2.982,2.6L54.854,26.09c2.34-0.795,4.776-1.379,7.289-1.727l-3.114,4.274l0.15,4.844l6.917-9.433
		l-0.04-0.03c0.514-0.02,1.028-0.039,1.548-0.039C68.349,23.979,69.087,24.003,69.821,24.044z M39.651,35.511l2.54,16.435
		l3.331,1.913l-3.208-20.765c0.909-0.752,1.856-1.461,2.831-2.132l3.846,24.889l3.331,1.912l-4.41-28.537
		c1.314-0.754,2.671-1.44,4.074-2.043l5.626,36.682c0.008,0.486,0.056,0.962,0.132,1.43L30.303,50.047
		c1.083-2.951,2.512-5.736,4.229-8.313l0.988,6.381l3.329,1.912l-1.803-11.671C37.868,37.366,38.738,36.417,39.651,35.511z
		 M64.995,103.318l10.642-12.8l-0.771-3.762L61.416,102.93c-1.176-0.186-2.334-0.424-3.475-0.71l16.117-19.383l-0.773-3.761
		l-18.471,22.213c-1.119-0.382-2.214-0.811-3.286-1.286l23.734-29.89c0.059-0.069,0.113-0.143,0.17-0.215l0.226-0.283l4.711,31.683
		c-2.352,0.8-4.799,1.387-7.322,1.734l4.137-4.978l-0.771-3.762l-7.557,9.09c-0.416,0.013-0.831,0.031-1.251,0.031
		C66.727,103.414,65.858,103.375,64.995,103.318z M95.399,92.032l-2.445-16.446l-3.319-1.932l3.089,20.781
		c-0.915,0.75-1.863,1.46-2.843,2.126l-3.705-24.919l-3.319-1.931l4.247,28.566c-1.249,0.707-2.537,1.354-3.865,1.925l-5.584-37.558
		l26.82,15.792c-1.05,2.617-2.362,5.103-3.919,7.411l-0.951-6.394l-3.319-1.932l1.736,11.678
		C97.193,90.187,96.317,91.131,95.399,92.032z"/>
	<g>
		<g>
			<g>
				<path opacity="0.7" fill="#85C441" stroke="#000000" stroke-width="0.6521" d="M121.229,59.543
					c-0.164-2.031-8.178-1.116-8.375-3.524l-0.314-3.866c0.195,2.408,8.211,1.494,8.378,3.524L121.229,59.543z"/>
				<path fill="#85C441" stroke="#000000" stroke-width="0.6521" d="M113.534,64.373c-0.167-2.032,7.89-2.422,7.694-4.83
					l-0.312-3.865c0.192,2.409-7.864,2.799-7.699,4.83L113.534,64.373z"/>
			</g>
			<g>
				<path opacity="0.7" fill="#85C441" stroke="#000000" stroke-width="0.6521" d="M119.82,50.697
					c-0.488-1.978-8.255,0.207-8.833-2.138l-0.93-3.765c0.58,2.345,8.343,0.159,8.832,2.137L119.82,50.697z"/>
				<path fill="#85C441" stroke="#000000" stroke-width="0.6521" d="M112.994,56.697c-0.49-1.978,7.402-3.655,6.826-6l-0.931-3.765
					c0.579,2.344-7.311,4.021-6.823,6L112.994,56.697z"/>
			</g>
			<g>
				<path opacity="0.7" fill="#85C441" stroke="#000000" stroke-width="0.6521" d="M116.961,42.215
					c-0.796-1.877-8.12,1.507-9.061-0.717l-1.509-3.573c0.938,2.225,8.263-1.158,9.057,0.718L116.961,42.215z"/>
				<path fill="#85C441" stroke="#000000" stroke-width="0.6521" d="M111.167,49.217c-0.791-1.876,6.732-4.777,5.794-7.002
					l-1.513-3.57c0.94,2.224-6.585,5.124-5.79,7L111.167,49.217z"/>
			</g>
			<g>
				<path opacity="0.7" fill="#85C441" stroke="#000000" stroke-width="0.6521" d="M112.738,34.334
					c-1.073-1.731-7.781,2.747-9.056,0.695l-2.047-3.295c1.274,2.052,7.981-2.426,9.057-0.695L112.738,34.334z"/>
				<path fill="#85C441" stroke="#000000" stroke-width="0.6521" d="M108.106,42.147c-1.077-1.729,5.909-5.762,4.632-7.813
					l-2.046-3.293c1.276,2.051-5.71,6.083-4.635,7.813L108.106,42.147z"/>
			</g>
			<g>
				<path opacity="0.7" fill="#85C441" stroke="#000000" stroke-width="0.6521" d="M107.289,27.256
					c-1.329-1.546-7.274,3.904-8.848,2.072l-2.525-2.942c1.573,1.833,7.517-3.619,8.846-2.073L107.289,27.256z"/>
				<path fill="#85C441" stroke="#000000" stroke-width="0.6521" d="M103.903,35.688c-1.326-1.546,4.96-6.6,3.386-8.432
					l-2.527-2.942c1.573,1.832-4.715,6.885-3.386,8.432L103.903,35.688z"/>
			</g>
			<g>
				<path opacity="0.7" fill="#85C441" stroke="#000000" stroke-width="0.6521" d="M100.563,20.913
					c-1.647-1.203-6.195,5.457-8.145,4.031l-3.13-2.291c1.949,1.426,6.497-5.233,8.142-4.031L100.563,20.913z"/>
				<path fill="#85C441" stroke="#000000" stroke-width="0.6521" d="M99.185,29.895c-1.646-1.204,3.327-7.555,1.379-8.981
					l-3.133-2.29c1.951,1.425-3.021,7.776-1.378,8.98L99.185,29.895z"/>
			</g>
			<g>
				<path opacity="0.7" fill="#85C441" stroke="#000000" stroke-width="0.6521" d="M92.806,15.817
					c-1.875-0.793-4.77,6.736-6.993,5.797l-3.576-1.509c2.228,0.939,5.119-6.59,6.997-5.797L92.806,15.817z"/>
				<path fill="#85C441" stroke="#000000" stroke-width="0.6521" d="M93.533,24.873c-1.877-0.792,1.5-8.118-0.728-9.056
					l-3.572-1.509c2.226,0.939-1.151,8.265,0.728,9.057L93.533,24.873z"/>
			</g>
			<g>
				<path opacity="0.7" fill="#85C441" stroke="#000000" stroke-width="0.6521" d="M84.536,12.326
					c-1.979-0.487-3.646,7.405-5.994,6.828l-3.767-0.925c2.348,0.576,4.015-7.316,5.993-6.829L84.536,12.326z"/>
				<path fill="#85C441" stroke="#000000" stroke-width="0.6521" d="M86.682,21.155c-1.977-0.487,0.199-8.254-2.146-8.829
					L80.771,11.4c2.346,0.576,0.167,8.342,2.144,8.829L86.682,21.155z"/>
			</g>
			<g>
				<path opacity="0.7" fill="#85C441" stroke="#000000" stroke-width="0.6521" d="M75.796,10.245
					c-2.031-0.164-2.412,7.894-4.82,7.701l-3.867-0.31c2.408,0.193,2.792-7.865,4.82-7.701L75.796,10.245z"/>
				<path fill="#85C441" stroke="#000000" stroke-width="0.6521" d="M79.329,18.617c-2.028-0.164-1.125-8.179-3.533-8.372
					l-3.864-0.31c2.408,0.193,1.502,8.208,3.533,8.371L79.329,18.617z"/>
			</g>
			<g>
				<path opacity="0.7" fill="#85C441" stroke="#000000" stroke-width="0.6521" d="M66.838,9.623
					c-2.034,0.165-1.119,8.179-3.527,8.374l-3.866,0.315c2.407-0.196,1.494-8.21,3.523-8.375L66.838,9.623z"/>
				<path fill="#85C441" stroke="#000000" stroke-width="0.6521" d="M71.669,17.319c-2.033,0.165-2.423-7.891-4.831-7.696
					l-3.869,0.314c2.409-0.196,2.799,7.86,4.833,7.696L71.669,17.319z"/>
			</g>
			<g>
				<path opacity="0.7" fill="#85C441" stroke="#000000" stroke-width="0.6521" d="M57.897,10.476
					c-1.979,0.489,0.208,8.252-2.137,8.831l-3.765,0.93c2.346-0.579,0.159-8.343,2.136-8.831L57.897,10.476z"/>
				<path fill="#85C441" stroke="#000000" stroke-width="0.6521" d="M63.897,17.298c-1.977,0.488-3.653-7.401-6-6.822l-3.764,0.93
					c2.347-0.58,4.021,7.31,6,6.822L63.897,17.298z"/>
			</g>
			<g>
				<path opacity="0.7" fill="#85C441" stroke="#000000" stroke-width="0.6521" d="M49.244,12.806
					c-1.878,0.794,1.504,8.116-0.72,9.058l-3.571,1.511c2.225-0.941-1.158-8.263,0.719-9.057L49.244,12.806z"/>
				<path fill="#85C441" stroke="#000000" stroke-width="0.6521" d="M56.243,18.597c-1.875,0.794-4.777-6.732-7-5.791l-3.572,1.511
					c2.225-0.941,5.124,6.586,6.999,5.792L56.243,18.597z"/>
			</g>
			<g>
				<path opacity="0.7" fill="#85C441" stroke="#000000" stroke-width="0.6521" d="M41.11,16.539
					c-1.731,1.076,2.744,7.785,0.692,9.06l-3.292,2.047c2.051-1.274-2.427-7.983-0.695-9.059L41.11,16.539z"/>
				<path fill="#85C441" stroke="#000000" stroke-width="0.6521" d="M48.924,21.174c-1.732,1.076-5.763-5.91-7.814-4.635
					l-3.294,2.047c2.051-1.274,6.082,5.711,7.813,4.636L48.924,21.174z"/>
			</g>
			<g>
				<path opacity="0.7" fill="#85C441" stroke="#000000" stroke-width="0.6521" d="M33.714,21.556
					c-1.545,1.328,3.904,7.274,2.073,8.848l-2.945,2.527c1.835-1.574-3.618-7.52-2.072-8.847L33.714,21.556z"/>
				<path fill="#85C441" stroke="#000000" stroke-width="0.6521" d="M42.144,24.942c-1.545,1.327-6.597-4.96-8.43-3.387
					l-2.943,2.527c1.833-1.574,6.886,4.713,8.433,3.386L42.144,24.942z"/>
			</g>
			<g>
				<path opacity="0.7" fill="#85C441" stroke="#000000" stroke-width="0.6521" d="M27.243,27.712
					c-1.328,1.547,4.967,6.594,3.396,8.429l-2.526,2.945c1.573-1.834-4.721-6.881-3.396-8.428L27.243,27.712z"/>
				<path fill="#85C441" stroke="#000000" stroke-width="0.6521" d="M36.092,29.775c-1.325,1.548-7.277-3.896-8.849-2.062
					l-2.525,2.945c1.573-1.834,7.526,3.61,8.852,2.062L36.092,29.775z"/>
			</g>
			<g>
				<path opacity="0.7" fill="#85C441" stroke="#000000" stroke-width="0.6521" d="M21.864,34.845
					c-1.073,1.732,5.918,5.756,4.644,7.811l-2.043,3.296c1.272-2.053-5.72-6.078-4.646-7.81L21.864,34.845z"/>
				<path fill="#85C441" stroke="#000000" stroke-width="0.6521" d="M30.926,35.53c-1.074,1.731-7.791-2.738-9.062-0.685
					l-2.044,3.296c1.275-2.053,7.988,2.418,9.063,0.687L30.926,35.53z"/>
			</g>
			<g>
				<path opacity="0.7" fill="#85C441" stroke="#000000" stroke-width="0.6521" d="M17.728,42.771
					c-0.792,1.877,6.737,4.771,5.798,6.996l-1.509,3.572c0.938-2.225-6.589-5.118-5.797-6.995L17.728,42.771z"/>
				<path fill="#85C441" stroke="#000000" stroke-width="0.6521" d="M26.785,42.043c-0.792,1.877-8.118-1.499-9.057,0.727
					l-1.508,3.573c0.94-2.225,8.264,1.151,9.057-0.727L26.785,42.043z"/>
			</g>
			<g>
				<path opacity="0.7" fill="#85C441" stroke="#000000" stroke-width="0.6521" d="M14.962,51.281
					c-0.488,1.98,7.405,3.649,6.828,5.994l-0.926,3.766c0.577-2.345-7.315-4.015-6.829-5.994L14.962,51.281z"/>
				<path fill="#85C441" stroke="#000000" stroke-width="0.6521" d="M23.791,49.134c-0.485,1.979-8.252-0.199-8.829,2.146
					l-0.927,3.767c0.576-2.346,8.342-0.167,8.83-2.146L23.791,49.134z"/>
			</g>
			<g>
				<path opacity="0.7" fill="#85C441" stroke="#000000" stroke-width="0.6521" d="M13.646,60.144
					c-0.164,2.032,7.893,2.415,7.701,4.824l-0.312,3.868c0.195-2.407-7.862-2.791-7.7-4.825L13.646,60.144z"/>
				<path fill="#85C441" stroke="#000000" stroke-width="0.6521" d="M22.018,56.61c-0.165,2.031-8.178,1.125-8.371,3.533
					l-0.311,3.866c0.194-2.409,8.209-1.501,8.372-3.532L22.018,56.61z"/>
			</g>
			<g>
				<path opacity="0.7" fill="#85C441" stroke="#000000" stroke-width="0.6521" d="M13.799,69.107
					c0.166,2.029,8.179,1.117,8.375,3.524l0.312,3.865c-0.194-2.408-8.208-1.493-8.374-3.524L13.799,69.107z"/>
				<path fill="#85C441" stroke="#000000" stroke-width="0.6521" d="M21.495,64.273c0.165,2.034-7.891,2.426-7.696,4.834
					l0.314,3.865c-0.196-2.408,7.861-2.799,7.696-4.83L21.495,64.273z"/>
			</g>
			<g>
				<path opacity="0.7" fill="#85C441" stroke="#000000" stroke-width="0.6521" d="M15.417,77.919
					c0.488,1.979,8.252-0.208,8.832,2.138l0.929,3.765c-0.579-2.345-8.343-0.158-8.831-2.136L15.417,77.919z"/>
				<path fill="#85C441" stroke="#000000" stroke-width="0.6521" d="M22.24,71.92c0.488,1.977-7.401,3.654-6.823,5.999l0.93,3.766
					c-0.579-2.346,7.31-4.023,6.822-6.001L22.24,71.92z"/>
			</g>
			<g>
				<path opacity="0.7" fill="#85C441" stroke="#000000" stroke-width="0.6521" d="M18.47,86.335
					c0.794,1.877,8.117-1.507,9.06,0.719l1.513,3.572c-0.94-2.226-8.265,1.157-9.061-0.72L18.47,86.335z"/>
				<path fill="#85C441" stroke="#000000" stroke-width="0.6521" d="M24.261,79.333c0.794,1.877-6.731,4.777-5.791,7.002
					l1.512,3.571c-0.941-2.224,6.585-5.124,5.792-7.001L24.261,79.333z"/>
			</g>
			<g>
				<path opacity="0.7" fill="#85C441" stroke="#000000" stroke-width="0.6521" d="M22.976,94.424
					c1.204,1.642,7.553-3.336,8.982-1.389l2.293,3.129c-1.428-1.95-7.777,3.03-8.982,1.387L22.976,94.424z"/>
				<path fill="#85C441" stroke="#000000" stroke-width="0.6521" d="M26.999,86.275c1.207,1.644-5.451,6.198-4.023,8.148
					l2.293,3.125c-1.43-1.947,5.23-6.503,4.026-8.146L26.999,86.275z"/>
			</g>
			<g>
				<path opacity="0.7" fill="#85C441" stroke="#000000" stroke-width="0.6521" d="M28.83,101.606
					c1.549,1.327,6.594-4.966,8.429-3.393l2.945,2.522c-1.833-1.57-6.88,4.722-8.429,3.396L28.83,101.606z"/>
				<path fill="#85C441" stroke="#000000" stroke-width="0.6521" d="M30.894,92.759c1.546,1.325-3.9,7.277-2.064,8.848l2.945,2.525
					c-1.833-1.573,3.611-7.523,2.065-8.849L30.894,92.759z"/>
			</g>
			<g>
				<path opacity="0.7" fill="#85C441" stroke="#000000" stroke-width="0.6521" d="M35.644,107.42
					c1.732,1.075,5.756-5.915,7.809-4.643l3.295,2.044c-2.053-1.273-6.076,5.717-7.809,4.644L35.644,107.42z"/>
				<path fill="#85C441" stroke="#000000" stroke-width="0.6521" d="M36.329,98.361c1.733,1.072-2.737,7.787-0.685,9.059
					l3.296,2.045c-2.053-1.272,2.419-7.986,0.686-9.061L36.329,98.361z"/>
			</g>
			<g>
				<path opacity="0.7" fill="#85C441" stroke="#000000" stroke-width="0.6521" d="M43.317,112.041
					c1.877,0.792,4.769-6.738,6.996-5.798l3.571,1.509c-2.224-0.94-5.116,6.59-6.994,5.796L43.317,112.041z"/>
				<path fill="#85C441" stroke="#000000" stroke-width="0.6521" d="M42.59,102.983c1.877,0.793-1.498,8.118,0.727,9.058
					l3.572,1.507c-2.225-0.938,1.151-8.264-0.726-9.056L42.59,102.983z"/>
			</g>
			<g>
				<path opacity="0.7" fill="#85C441" stroke="#000000" stroke-width="0.6521" d="M51.652,115.336
					c1.979,0.486,3.649-7.406,5.995-6.828l3.766,0.925c-2.347-0.575-4.015,7.316-5.995,6.828L51.652,115.336z"/>
				<path fill="#85C441" stroke="#000000" stroke-width="0.6521" d="M49.506,106.508c1.979,0.485-0.199,8.252,2.146,8.828
					l3.765,0.925c-2.345-0.575-0.166-8.342-2.145-8.827L49.506,106.508z"/>
			</g>
			<g>
				<path opacity="0.7" fill="#85C441" stroke="#000000" stroke-width="0.6521" d="M60.423,117.209
					c2.033,0.163,2.415-7.895,4.823-7.701l3.869,0.311c-2.409-0.193-2.793,7.863-4.826,7.701L60.423,117.209z"/>
				<path fill="#85C441" stroke="#000000" stroke-width="0.6521" d="M56.893,108.838c2.029,0.162,1.124,8.179,3.531,8.371
					l3.866,0.311c-2.408-0.193-1.501-8.209-3.534-8.37L56.893,108.838z"/>
			</g>
			<g>
				<path opacity="0.7" fill="#85C441" stroke="#000000" stroke-width="0.6521" d="M69.385,117.622
					c2.033-0.166,1.118-8.18,3.526-8.374l3.865-0.314c-2.408,0.194-1.494,8.211-3.525,8.374L69.385,117.622z"/>
				<path fill="#85C441" stroke="#000000" stroke-width="0.6521" d="M64.553,109.926c2.033-0.164,2.426,7.891,4.832,7.696
					l3.866-0.314c-2.408,0.196-2.798-7.86-4.829-7.696L64.553,109.926z"/>
			</g>
			<g>
				<path opacity="0.7" fill="#85C441" stroke="#000000" stroke-width="0.6521" d="M78.291,116.562
					c1.979-0.488-0.21-8.25,2.138-8.831l3.765-0.928c-2.346,0.577-0.16,8.342-2.137,8.831L78.291,116.562z"/>
				<path fill="#85C441" stroke="#000000" stroke-width="0.6521" d="M72.289,109.739c1.977-0.487,3.654,7.4,6.002,6.822l3.766-0.928
					c-2.346,0.578-4.023-7.312-6.003-6.824L72.289,109.739z"/>
			</g>
			<g>
				<path opacity="0.7" fill="#85C441" stroke="#000000" stroke-width="0.6521" d="M86.881,114.036
					c1.878-0.794-1.506-8.116,0.72-9.058l3.57-1.512c-2.224,0.941,1.159,8.265-0.718,9.057L86.881,114.036z"/>
				<path fill="#85C441" stroke="#000000" stroke-width="0.6521" d="M79.88,108.246c1.877-0.793,4.777,6.731,7.001,5.79l3.572-1.513
					c-2.226,0.942-5.126-6.584-7.001-5.789L79.88,108.246z"/>
			</g>
			<g>
				<path opacity="0.7" fill="#85C441" stroke="#000000" stroke-width="0.6521" d="M94.921,110.123
					c1.731-1.075-2.746-7.783-0.693-9.059l3.294-2.048c-2.053,1.275,2.426,7.985,0.694,9.06L94.921,110.123z"/>
				<path fill="#85C441" stroke="#000000" stroke-width="0.6521" d="M87.106,105.488c1.732-1.076,5.764,5.91,7.814,4.635
					l3.295-2.046c-2.051,1.274-6.085-5.712-7.814-4.637L87.106,105.488z"/>
			</g>
			<g>
				<path opacity="0.7" fill="#85C441" stroke="#000000" stroke-width="0.6521" d="M102.197,104.945
					c1.548-1.328-3.901-7.272-2.07-8.847l2.944-2.527c-1.836,1.574,3.617,7.52,2.069,8.848L102.197,104.945z"/>
				<path fill="#85C441" stroke="#000000" stroke-width="0.6521" d="M93.768,101.56c1.546-1.327,6.599,4.959,8.43,3.386l2.943-2.525
					c-1.831,1.572-6.886-4.715-8.432-3.386L93.768,101.56z"/>
			</g>
			<g>
				<path opacity="0.7" fill="#85C441" stroke="#000000" stroke-width="0.6521" d="M108.529,98.648
					c1.328-1.548-4.964-6.594-3.393-8.428l2.521-2.946c-1.569,1.834,4.724,6.88,3.397,8.428L108.529,98.648z"/>
				<path fill="#85C441" stroke="#000000" stroke-width="0.6521" d="M99.681,96.585c1.324-1.547,7.276,3.896,8.849,2.063
					l2.525-2.946c-1.572,1.836-7.524-3.611-8.849-2.063L99.681,96.585z"/>
			</g>
			<g>
				<path opacity="0.7" fill="#85C441" stroke="#000000" stroke-width="0.6521" d="M113.744,91.397
					c1.075-1.731-5.913-5.757-4.643-7.81l2.046-3.297c-1.274,2.053,5.718,6.078,4.643,7.81L113.744,91.397z"/>
				<path fill="#85C441" stroke="#000000" stroke-width="0.6521" d="M104.686,90.713c1.075-1.732,7.786,2.737,9.059,0.685
					l2.046-3.295c-1.271,2.053-7.987-2.419-9.061-0.687L104.686,90.713z"/>
			</g>
			<g>
				<path opacity="0.7" fill="#85C441" stroke="#000000" stroke-width="0.6521" d="M117.7,83.38
					c0.793-1.878-6.737-4.771-5.794-6.997l1.506-3.572c-0.94,2.224,6.592,5.117,5.799,6.994L117.7,83.38z"/>
				<path fill="#85C441" stroke="#000000" stroke-width="0.6521" d="M108.642,84.105c0.796-1.877,8.12,1.499,9.059-0.726
					l1.511-3.572c-0.94,2.225-8.268-1.153-9.061,0.726L108.642,84.105z"/>
			</g>
			<g>
				<path opacity="0.7" fill="#85C441" stroke="#000000" stroke-width="0.6521" d="M120.273,74.803
					c0.487-1.979-7.405-3.647-6.83-5.994l0.925-3.77c-0.576,2.349,7.316,4.02,6.83,5.998L120.273,74.803z"/>
				<path fill="#85C441" stroke="#000000" stroke-width="0.6521" d="M111.442,76.95c0.487-1.979,8.254,0.199,8.831-2.147
					l0.925-3.766c-0.576,2.346-8.341,0.167-8.828,2.146L111.442,76.95z"/>
			</g>
			<g>
				<path opacity="0.7" fill="#85C441" stroke="#000000" stroke-width="0.6521" d="M121.381,65.906
					c0.162-2.033-7.895-2.416-7.701-4.824l0.308-3.867c-0.191,2.408,7.866,2.791,7.703,4.823L121.381,65.906z"/>
				<path fill="#85C441" stroke="#000000" stroke-width="0.6521" d="M113.01,69.442c0.162-2.032,8.18-1.128,8.371-3.536l0.31-3.868
					c-0.192,2.409-8.208,1.502-8.371,3.536L113.01,69.442z"/>
			</g>
		</g>
	</g>
	<text transform="matrix(1 0 0 1.15 126.8662 69.2148)"><tspan x="0" y="0" font-family="'AGaramondPro-BoldItalic'" font-size="44.5853">mill</tspan><tspan x="74.59" y="0" fill="#88BC40" font-family="'AGaramondPro-BoldItalic'" font-size="44.5853">stone</tspan></text>
	<text transform="matrix(1 0 0 1 126.2129 85.8271)" font-family="'MyriadPro-It'" font-size="12">a multiplex genome analysis platform</text>
</g>
</svg>
